<svg xmlns="http://www.w3.org/2000/svg" width="24" height="24" viewBox="0 0 24 24">
  <g id="Drawing_2" data-name="Drawing 2" transform="translate(-161 -479)">
    <path id="Drawing_2-2" data-name="Drawing 2" d="M-4776.98,9899.41v-3.834h17.177v3.834a2.658,2.658,0,0,0-2.138-2.524,16.972,16.972,0,0,0-5.186,0V9912a2.213,2.213,0,0,0,.68,1.332,4.784,4.784,0,0,0,1.284.785h-6.765a8.386,8.386,0,0,0,1.675-.922,1.48,1.48,0,0,0,.6-.943V9896.88a17.179,17.179,0,0,0-5.165,0A3.07,3.07,0,0,0-4776.98,9899.41Z" transform="translate(4941.396 -9413.84)" fill="#ff770e"/>
    <g id="Rectangle_1935" data-name="Rectangle 1935" transform="translate(161 479)" fill="none" stroke="#707070" stroke-width="1" opacity="0">
      <rect width="24" height="24" stroke="none"/>
      <rect x="0.5" y="0.5" width="23" height="23" fill="none"/>
    </g>
  </g>
</svg>
