<svg xmlns="http://www.w3.org/2000/svg" width="24" height="24" viewBox="0 0 24 24">
  <g id="Drawing_4" data-name="Drawing 4" transform="translate(-161 -401)">
    <path id="Drawing_4-2" data-name="Drawing 4" d="M13.97,17.25a4.8,4.8,0,0,1-1.651-.26,2.312,2.312,0,0,1-1.413-1.361,2.576,2.576,0,0,0-1.868-1.563,4.65,4.65,0,0,0-1.251-.153,15.032,15.032,0,0,0-1.686.131l-.049.006c-.366.041-.745.085-1.13.111-.941.067-1.778.193-1.937.219H2.978L0,14.914l1.868-3.838L13.407,1.192A3.561,3.561,0,0,1,15.473,0,1.2,1.2,0,0,1,15.8.045a2.069,2.069,0,0,1,1.6,2.161c0,1.038-1.582,2.021-1.6,2.031l-10.623,9.1H5.2a14.265,14.265,0,0,1,2.753-.3,6.065,6.065,0,0,1,2.09.308,2.316,2.316,0,0,1,1.47,1.427,2.665,2.665,0,0,0,1.375,1.477,6.786,6.786,0,0,0,2.893.6,6.854,6.854,0,0,0,1-.064h0a.042.042,0,0,1-.018.008,9.819,9.819,0,0,1-2.79.457ZM2.406,11.842h0L1.384,13.9,3.8,13.36ZM13.473,2.373h0L3.18,11.134,4.567,12.6,14.759,3.873ZM15.385.83c-.65,0-1.162.9-1.183.935l1.386,1.458c.01,0,1.094-.468.958-1.228-.139-.784-.208-.911-.958-1.136a.715.715,0,0,0-.2-.029Z" transform="translate(163.788 404.891)" fill="#ff770e"/>
    <g id="Rectangle_1935" data-name="Rectangle 1935" transform="translate(161 401)" fill="none" stroke="#707070" stroke-width="1" opacity="0">
      <rect width="24" height="24" stroke="none"/>
      <rect x="0.5" y="0.5" width="23" height="23" fill="none"/>
    </g>
  </g>
</svg>
