<svg xmlns="http://www.w3.org/2000/svg" width="24" height="24" viewBox="0 0 24 24">
  <g id="Drawing_1" data-name="Drawing 1" transform="translate(-161 -233)">
    <path id="Drawing_1-2" data-name="Drawing 1" d="M18.2,19.2H1a1,1,0,0,1-1-1V1A1,1,0,0,1,1,0H18.2a1,1,0,0,1,1,1V18.2A1,1,0,0,1,18.2,19.2ZM2.4,1.119a1.2,1.2,0,0,0-1.2,1.2V16.862a1.2,1.2,0,0,0,1.2,1.2H16.881a1.2,1.2,0,0,0,1.2-1.2V2.319a1.2,1.2,0,0,0-1.2-1.2Z" transform="translate(163.401 235.4)" fill="#ff770e"/>
    <g id="Rectangle_1935" data-name="Rectangle 1935" transform="translate(161 233)" fill="none" stroke="#707070" stroke-width="1" opacity="0.004">
      <rect width="24" height="24" stroke="none"/>
      <rect x="0.5" y="0.5" width="23" height="23" fill="none"/>
    </g>
  </g>
</svg>
