<svg xmlns="http://www.w3.org/2000/svg" width="24" height="24" viewBox="0 0 24 24">
  <defs>
    <style>
      .cls-1 {
        fill: #c7beb7;
      }

      .cls-2, .cls-4 {
        fill: none;
      }

      .cls-2 {
        stroke: #707070;
        opacity: 0;
      }

      .cls-3 {
        stroke: none;
      }
    </style>
  </defs>
  <g id="Drawing_2" data-name="Drawing 2" transform="translate(-161 -479)">
    <path id="Drawing_2-2" data-name="Drawing 2" class="cls-1" d="M-4776.984,9899.405v-3.834h17.177v3.834a2.659,2.659,0,0,0-2.138-2.525,16.981,16.981,0,0,0-5.186,0v15.112a2.209,2.209,0,0,0,.68,1.332,4.786,4.786,0,0,0,1.284.785h-6.765a8.388,8.388,0,0,0,1.675-.922,1.481,1.481,0,0,0,.6-.943V9896.88a17.176,17.176,0,0,0-5.165,0A3.069,3.069,0,0,0-4776.984,9899.405Z" transform="translate(4941.396 -9413.84)"/>
    <g id="Rectangle_1935" data-name="Rectangle 1935" class="cls-2" transform="translate(161 479)">
      <rect class="cls-3" width="24" height="24"/>
      <rect class="cls-4" x="0.5" y="0.5" width="23" height="23"/>
    </g>
  </g>
</svg>
