<svg xmlns="http://www.w3.org/2000/svg" width="24" height="24" viewBox="0 0 24 24">
  <defs>
    <style>
      .cls-1 {
        fill: #c7beb7;
      }

      .cls-2, .cls-4 {
        fill: none;
      }

      .cls-2 {
        stroke: #707070;
        opacity: 0;
      }

      .cls-3 {
        stroke: none;
      }
    </style>
  </defs>
  <g id="Drawing_4" data-name="Drawing 4" transform="translate(-161 -401)">
    <path id="Drawing_4-2" data-name="Drawing 4" class="cls-1" d="M13.97,17.25a4.8,4.8,0,0,1-1.651-.26,2.312,2.312,0,0,1-1.413-1.361,2.576,2.576,0,0,0-1.868-1.563,4.65,4.65,0,0,0-1.251-.153,15.032,15.032,0,0,0-1.686.131l-.049.006c-.366.041-.745.085-1.13.111-.941.067-1.778.193-1.937.219H2.978L0,14.914l1.868-3.838L13.407,1.192A3.561,3.561,0,0,1,15.473,0,1.2,1.2,0,0,1,15.8.045a2.069,2.069,0,0,1,1.6,2.161c0,1.038-1.582,2.021-1.6,2.031l-10.623,9.1.02,0a14.265,14.265,0,0,1,2.753-.3,6.065,6.065,0,0,1,2.09.308,2.316,2.316,0,0,1,1.47,1.427,2.665,2.665,0,0,0,1.375,1.477,6.786,6.786,0,0,0,2.893.6,6.854,6.854,0,0,0,1-.064h0a.042.042,0,0,1-.018.008A9.819,9.819,0,0,1,13.97,17.25ZM2.406,11.842h0L1.384,13.9,3.8,13.36,2.406,11.842ZM13.473,2.373h0L3.18,11.134,4.567,12.6,14.759,3.873l-1.286-1.5ZM15.385.83c-.65,0-1.162.9-1.183.935l1.386,1.458c.01,0,1.094-.468.958-1.228-.139-.784-.208-.911-.958-1.136A.715.715,0,0,0,15.385.83Z" transform="translate(163.788 404.891)"/>
    <g id="Rectangle_1935" data-name="Rectangle 1935" class="cls-2" transform="translate(161 401)">
      <rect class="cls-3" width="24" height="24"/>
      <rect class="cls-4" x="0.5" y="0.5" width="23" height="23"/>
    </g>
  </g>
</svg>
