<svg xmlns="http://www.w3.org/2000/svg" width="20" height="20" viewBox="0 0 20 20">
  <g id="Drawing_4" data-name="Drawing 4" transform="translate(-161 -401)">
    <path id="Drawing_4-2" data-name="Drawing 4" d="M4859.64-9575.625a4.022,4.022,0,0,1-1.374-.215,1.933,1.933,0,0,1-1.178-1.137,2.142,2.142,0,0,0-1.556-1.3,3.831,3.831,0,0,0-1.039-.128,12.355,12.355,0,0,0-1.4.109h0l-.018,0c-.313.035-.637.072-.968.1-.826.059-1.541.168-1.619.181l-2.483.446,1.557-3.2,9.616-8.236a2.944,2.944,0,0,1,1.721-.992,1.012,1.012,0,0,1,.278.038,1.8,1.8,0,0,1,1.013.673,1.919,1.919,0,0,1,.316,1.127c0,.849-1.274,1.658-1.329,1.691l-9.129,7.832a.024.024,0,0,1,.007,0,12.694,12.694,0,0,1,2.375-.254,5.188,5.188,0,0,1,1.769.256,1.812,1.812,0,0,1,1.186,1.131,2.075,2.075,0,0,0,1.113,1.18,4.925,4.925,0,0,0,2.159.429,7.329,7.329,0,0,0,1.332-.12l-.006,0A8.145,8.145,0,0,1,4859.64-9575.625Zm-9.745-4.608h0l-.986,2.036,2.43-.479Zm9.388-8.173h0l-9.057,7.734,1.56,1.617,8.963-7.69-1.466-1.661Zm1.522-1.053c-.557,0-1.122.693-1.146.723l1.485,1.656c.009-.006.981-.591.868-1.226a1.256,1.256,0,0,0-1.022-1.126A.653.653,0,0,0,4860.805-9589.459Z" transform="translate(-4684.678 9994.242)" fill="#c7beb7"/>
    <g id="Rectangle_1935" data-name="Rectangle 1935" transform="translate(161 401)" fill="none" stroke="#707070" stroke-width="1" opacity="0">
      <rect width="20" height="20" stroke="none"/>
      <rect x="0.5" y="0.5" width="19" height="19" fill="none"/>
    </g>
  </g>
</svg>
