<svg xmlns="http://www.w3.org/2000/svg" width="24" height="24" viewBox="0 0 24 24">
  <defs>
    <style>
      .cls-1 {
        fill: #c7beb7;
      }

      .cls-2 {
        fill: none;
      }
    </style>
  </defs>
  <g id="General_4" data-name="General 4" transform="translate(-160 -89)">
    <path id="Union_34" data-name="Union 34" class="cls-1" d="M10.649,14.05A5.155,5.155,0,0,1,11.069,12l-.617-.423L3.48,16.374l.991,1.5L0,17.895l1.7-4.216,1.089,1.646,7.046-4.843V3.793H8.025L10.505,0l2.48,3.793H11.073v6.688l.633.436A4.975,4.975,0,0,1,15.66,8.945a5.107,5.107,0,1,1-5.011,5.1Zm1.635.255a3.268,3.268,0,0,0,6.447.835h-.854A2.455,2.455,0,0,1,13.1,14.3,2.49,2.49,0,0,1,15.561,11.8a2.387,2.387,0,0,1,1.728.748l-.928.974h2.37V11.179l-.854.767a3.233,3.233,0,0,0-2.316-.986A3.316,3.316,0,0,0,12.284,14.3Z" transform="translate(161.53 91)"/>
    <rect id="Rectangle_1937" data-name="Rectangle 1937" class="cls-2" width="24" height="24" transform="translate(160 89)"/>
  </g>
</svg>
