<svg xmlns="http://www.w3.org/2000/svg" width="24" height="24" viewBox="0 0 24 24">
  <g id="General_5" data-name="General 5" transform="translate(-160 -119)">
    <rect id="Rectangle_1936" data-name="Rectangle 1936" width="24" height="24" transform="translate(160 119)" fill="none"/>
    <path id="Union_35" data-name="Union 35" d="M12.2,17.6a5.149,5.149,0,0,1-1.068-5.538l-.68-.467L3.48,16.4l.991,1.5L0,17.914l1.7-4.22L2.789,15.34l7.046-4.848V3.8H8.025L10.5,0l2.48,3.8H11.072v6.7l.682.469a5.271,5.271,0,0,1,.446-.521,4.889,4.889,0,0,1,7.013,0,5.132,5.132,0,0,1,0,7.157,4.889,4.889,0,0,1-7.013,0Zm1.244-5.223a3.708,3.708,0,0,0-1.438,1.642,3.716,3.716,0,0,0,1.438,1.65,4.321,4.321,0,0,0,4.525,0,3.714,3.714,0,0,0,1.438-1.65,3.7,3.7,0,0,0-1.438-1.642,4.3,4.3,0,0,0-4.525,0Zm.7,1.682a1.567,1.567,0,1,1,1.567,1.6,1.585,1.585,0,0,1-1.571-1.6Zm.713,0a.853.853,0,1,0,.854-.871.865.865,0,0,0-.857.869Z" transform="translate(161.53 121)" fill="#ff770e"/>
  </g>
</svg>
