<svg xmlns="http://www.w3.org/2000/svg" width="24" height="24" viewBox="0 0 24 24">
  <g id="General_2" data-name="General 2" transform="translate(-161 -209)">
    <path id="General_2-2" data-name="General 2" d="M0,20.2V0H20.226V20.2Zm1.262-1.216h17.7V1.267H1.262ZM11.38,15.445c-.549-2.06,5.963-8.435,4.248-8.435S6.019,16.3,4.592,15.85,10.109,6.214,9.863,5.227,2.914,8.458,2.914,8.458s7.677-6.007,8.706-4.981-6.427,10-5.606,10.458c.41.229,2.762-1.984,5.2-4.2s4.956-4.406,5.755-4.2c1.6.41-4.517,7.657-4.315,9.251s4.656,1.063,4.656,1.063a15.289,15.289,0,0,1-3.746.629C12.511,16.478,11.589,16.234,11.38,15.445Z" transform="translate(162.834 210.837)" fill="#ff770e"/>
    <g id="Rectangle_1935" data-name="Rectangle 1935" transform="translate(161 209)" fill="none" stroke="#707070" stroke-width="1" opacity="0">
      <rect width="24" height="24" stroke="none"/>
      <rect x="0.5" y="0.5" width="23" height="23" fill="none"/>
    </g>
  </g>
</svg>
