<svg xmlns="http://www.w3.org/2000/svg" width="20" height="20" viewBox="0 0 20 20">
  <g id="General_2" data-name="General 2" transform="translate(-161 -209)">
    <path id="General_2-2" data-name="General 2" d="M4848-9573.17V-9590h16.854v16.829Zm.421-.51h16.013v-15.809h-16.013Zm9.721-3.774c-.456-1.715,4.86-7.238,3.43-7.238s-7.962,7.619-9.152,7.238,4.538-7.737,4.333-8.564-6.326,3.068-6.326,3.068,6.4-5.008,7.257-4.153-5.357,8.337-4.672,8.717c.342.189,2.3-1.654,4.333-3.5s4.13-3.674,4.8-3.5c1.335.343-3.764,6.382-3.594,7.71s3.878.885,3.878.885a9.955,9.955,0,0,1-2.282.319C4859.232-9576.474,4858.348-9576.685,4858.143-9577.454Z" transform="translate(-4685.473 9800.531)" fill="#c7beb7"/>
    <g id="Rectangle_1935" data-name="Rectangle 1935" transform="translate(161 209)" fill="none" stroke="#707070" stroke-width="1" opacity="0">
      <rect width="20" height="20" stroke="none"/>
      <rect x="0.5" y="0.5" width="19" height="19" fill="none"/>
    </g>
  </g>
</svg>
