<svg xmlns="http://www.w3.org/2000/svg" width="20" height="20" viewBox="0 0 20 20">
  <g id="General_1" data-name="General 1" transform="translate(-161 -505)">
    <path id="General_1-2" data-name="General 1" d="M4857.342-9580.475a5.509,5.509,0,0,1-3.814,1.53,5.532,5.532,0,0,1-5.527-5.528,5.532,5.532,0,0,1,5.527-5.527,5.533,5.533,0,0,1,5.527,5.527,5.5,5.5,0,0,1-.789,2.844l4.725,4.407-1,1.077Zm-7.867-4a4.058,4.058,0,0,0,4.053,4.055,4.059,4.059,0,0,0,4.053-4.055,4.059,4.059,0,0,0-4.053-4.053A4.058,4.058,0,0,0,4849.475-9584.473Z" transform="translate(-4684.496 10097.996)" fill="#c7beb7"/>
    <g id="Rectangle_1935" data-name="Rectangle 1935" transform="translate(161 505)" fill="none" stroke="#707070" stroke-width="1" opacity="0">
      <rect width="20" height="20" stroke="none"/>
      <rect x="0.5" y="0.5" width="19" height="19" fill="none"/>
    </g>
  </g>
</svg>
