<svg xmlns="http://www.w3.org/2000/svg" width="24" height="24" viewBox="0 0 24 24">
  <defs>
    <style>
      .cls-1 {
        fill: #c7beb7;
      }

      .cls-2 {
        fill: none;
      }
    </style>
  </defs>
  <g id="General_3" data-name="General 3" transform="translate(-160 -59)">
    <path id="Union_38" data-name="Union 38" class="cls-1" d="M10.212,18.395A6.348,6.348,0,0,0,15.4,15.5H5.244V8.744l-2,.287.582-3.679L5.118,6.609a7.115,7.115,0,0,1,4.715-2.15V3.793H8.025L10.5,0l2.48,3.793H11.072V4.5a7.3,7.3,0,0,1,6.348,7.3,7.484,7.484,0,0,1-.5,2.7l.99.68,1.06-1.6,1.7,4.213,0,0h0l-4.471-.023,1.024-1.545-.856-.589a7.17,7.17,0,0,1-6.149,3.512Zm5.206-2.913c.072-.111.143-.225.21-.341L15.418,15Zm-9.539-.425h8.9V8.568h-8.3l-.6.085Zm10.282-1.074a7.705,7.705,0,0,0,.426-2.181c.2-3.662-3.152-6.095-5.515-6.521V8.1H9.833V5.239c-2.057.155-3.255.7-4.193,1.881L6.5,8.1h8.919v5.369ZM0,17.892l1.7-4.213,1.089,1.646,2.456-1.688V15.16L3.48,16.374l.991,1.5L0,17.895ZM6.223,13.91,9.649,9.857,11.9,12.194l.648-.561,1.883,2.276Zm4.93-3.45a.819.819,0,1,1,.82.765A.79.79,0,0,1,11.153,10.46Z" transform="translate(161.669 61)"/>
    <rect id="Rectangle_1938" data-name="Rectangle 1938" class="cls-2" width="24" height="24" transform="translate(160 59)"/>
  </g>
</svg>
