<svg xmlns="http://www.w3.org/2000/svg" width="24" height="24" viewBox="0 0 24 24">
  <g id="General_4" data-name="General 4" transform="translate(-160 -89)">
    <path id="Union_34" data-name="Union 34" d="M10.649,14.05a5.155,5.155,0,0,1,.42-2.05l-.617-.423-6.972,4.8.991,1.5L0,17.9l1.7-4.216,1.089,1.646,7.046-4.843V3.793H8.025L10.505,0l2.48,3.793H11.073v6.688l.633.436A4.975,4.975,0,0,1,15.66,8.945a5.107,5.107,0,1,1-5.011,5.1Zm1.635.255a3.268,3.268,0,0,0,6.447.835h-.854A2.455,2.455,0,0,1,13.1,14.3a2.49,2.49,0,0,1,2.461-2.5,2.387,2.387,0,0,1,1.728.748l-.928.974h2.37V11.179l-.854.767a3.233,3.233,0,0,0-2.316-.986,3.316,3.316,0,0,0-3.277,3.34Z" transform="translate(161.53 91)" fill="#ff770e"/>
    <rect id="Rectangle_1937" data-name="Rectangle 1937" width="24" height="24" transform="translate(160 89)" fill="none"/>
  </g>
</svg>
