<svg xmlns="http://www.w3.org/2000/svg" width="20" height="20" viewBox="0 0 20 20">
  <g id="Measurement_5" data-name="Measurement 5" transform="translate(-161 -185)">
    <path id="Measurement_5-2" data-name="Measurement 5" d="M4848-9573.566v-13.905h16.854v13.905Zm.816-9.416v8.605l15.222-.01v-3.83l0,0a5.4,5.4,0,0,1-2.978.974,4.438,4.438,0,0,1-2.161-.564,12.3,12.3,0,0,1-3.2-2.549,15.634,15.634,0,0,0-2.241-2,4.893,4.893,0,0,0-2.9-.934A4.99,4.99,0,0,0,4848.817-9582.982Zm4.722-.1a9.344,9.344,0,0,1,2.781,2.334,8.316,8.316,0,0,0,3.107,2.448,4.649,4.649,0,0,0,1.806.383,4.282,4.282,0,0,0,2.831-1.1v-7.686l-15.221.01v2.992h0a4.861,4.861,0,0,1,1.453-.2A7.1,7.1,0,0,1,4853.54-9583.084Zm9.743-5.651h-13.709a.844.844,0,0,1-.729.421.843.843,0,0,1-.843-.843.843.843,0,0,1,.843-.843.842.842,0,0,1,.729.422h13.709a.843.843,0,0,1,.73-.422.842.842,0,0,1,.843.843.842.842,0,0,1-.843.843A.843.843,0,0,1,4863.282-9588.735Z" transform="translate(-4685.473 9776.902)" fill="#c7beb7"/>
    <g id="Rectangle_1935" data-name="Rectangle 1935" transform="translate(161 185)" fill="none" stroke="#707070" stroke-width="1" opacity="0">
      <rect width="20" height="20" stroke="none"/>
      <rect x="0.5" y="0.5" width="19" height="19" fill="none"/>
    </g>
  </g>
</svg>
