<svg xmlns="http://www.w3.org/2000/svg" width="24" height="24" viewBox="0 0 24 24">
  <g id="Measurement_3" data-name="Measurement 3" transform="translate(-161 -329)">
    <path id="Measurement_3-2" data-name="Measurement 3" d="M-4771.35,9864.69c-.047-1.849-2.347-1.5-2.791-.6-2.565-.193-7.408-.306-9.461-.349a.935.935,0,0,0-1.061-.616.935.935,0,0,0-.758.965c-.1,1.346,1.3,1.27,1.909.6a41.845,41.845,0,0,1,4.712,7.439c1.288,3.163.558,4.446.558,4.446l-8.713-2.062s.622-1.692-.919-1.158,0,1.524,0,1.524l-4.034,5.377a1.119,1.119,0,0,0-.681,0c-.192.077-1.721.848-.242,1.976.825.8,1.414.066,1.707-.728.07-.066,0-.661,0-.661l3.917-5.465,10.355,2.224a7.457,7.457,0,0,0-.5-5.458c-1.407-3.226-5.13-7.453-5.13-7.453s4.85.117,8.338.293C-4773.86,9865.98-4771.3,9866.54-4771.35,9864.69Z" transform="translate(4955.788 -9532.146)" fill="#ff770e"/>
    <g id="Rectangle_1935" data-name="Rectangle 1935" transform="translate(161 329)" fill="none" stroke="#707070" stroke-width="1" opacity="0">
      <rect width="24" height="24" stroke="none"/>
      <rect x="0.5" y="0.5" width="23" height="23" fill="none"/>
    </g>
  </g>
</svg>
