<svg xmlns="http://www.w3.org/2000/svg" width="24" height="24" viewBox="0 0 24 24">
  <defs>
    <style>
      .cls-1 {
        fill: #c7beb7;
      }

      .cls-2, .cls-4 {
        fill: none;
      }

      .cls-2 {
        stroke: #707070;
        opacity: 0;
      }

      .cls-3 {
        stroke: none;
      }
    </style>
  </defs>
  <g id="Measurement_1" data-name="Measurement 1" transform="translate(-161 -281)">
    <path id="Measurement_1-2" data-name="Measurement 1" class="cls-1" d="M19.768,19.67H0V0H.042L.329,0a25.361,25.361,0,0,1,5.6.678,17.79,17.79,0,0,1,8.018,3.977c2.827,2.572,4.258,6.518,4.961,9.375a30.926,30.926,0,0,1,.859,5.639ZM.861.711.87,10.577a18.8,18.8,0,0,1,5.436,3.048A15.083,15.083,0,0,1,9.8,18.557h9.075v-1l-3.535.11,3.328-1.089-.249-1.169-3.325.288,3.224-1.172-.555-1.933-3.4,1.031,2.96-2.12a5.527,5.527,0,0,0-.352-1c-.179-.373-.32-.747-.372-.891l0-.011-3.417,2.343,2.8-3.426a4.794,4.794,0,0,0-.418-.743,6.133,6.133,0,0,0-.6-.7L11.585,10.35l2.356-4.5a5.9,5.9,0,0,0-.759-.886,6.5,6.5,0,0,0-1.043-.75L8.985,8.55,11.12,3.721a3.846,3.846,0,0,0-.884-.679,8.609,8.609,0,0,0-1.3-.536L6.866,6.782l1.094-4.5a5.069,5.069,0,0,0-.953-.5,5.157,5.157,0,0,0-1.042-.249L4.136,5.373l.641-4.147h0a6.841,6.841,0,0,0-.817-.2A2.428,2.428,0,0,0,3.532.993a3.448,3.448,0,0,0-.481.033L1.958,4.96,2.175.711ZM.921,11.8v6.75H8.616a12.117,12.117,0,0,0-3.157-4.327A12.446,12.446,0,0,0,.921,11.8Z" transform="translate(163.119 283.513)"/>
    <g id="Rectangle_1935" data-name="Rectangle 1935" class="cls-2" transform="translate(161 281)">
      <rect class="cls-3" width="24" height="24"/>
      <rect class="cls-4" x="0.5" y="0.5" width="23" height="23"/>
    </g>
  </g>
</svg>
