<svg xmlns="http://www.w3.org/2000/svg" width="20" height="20" viewBox="0 0 20 20">
  <g id="Measurement_1" data-name="Measurement 1" transform="translate(-161 -281)">
    <path id="Measurement_1-2" data-name="Measurement 1" d="M4864.472-9573.609H4848V-9590h.012c.03,0,.122,0,.263,0a21.108,21.108,0,0,1,4.668.565,17.622,17.622,0,0,1,3.4,1.161,13.063,13.063,0,0,1,3.283,2.152,12.192,12.192,0,0,1,2.681,3.706,20.561,20.561,0,0,1,1.453,4.106,26.1,26.1,0,0,1,.715,4.7Zm-16.025-6.506h0v5.974h7.132a11.82,11.82,0,0,0-.692-1.522,9.429,9.429,0,0,0-2.062-2.684,7.867,7.867,0,0,0-2.875-1.465,8.964,8.964,0,0,0-1.5-.3Zm.059-9.485v8.79a11.986,11.986,0,0,1,1.665.466,9.83,9.83,0,0,1,3.084,1.7,9.96,9.96,0,0,1,2.133,2.854,12.762,12.762,0,0,1,.714,1.621h7.917l-.119-1.2-3.116.092,2.941-.908-.206-.973-2.939.238,2.837-1.043-.461-1.609-2.983.926,2.641-1.9a4.841,4.841,0,0,0-.293-.834,8.005,8.005,0,0,1-.312-.747v0l-3.022,2.079,2.444-3.1a3.824,3.824,0,0,0-.348-.618,4.991,4.991,0,0,0-.5-.585l-2.925,2.971,2.139-3.866a4.933,4.933,0,0,0-.633-.737,5.45,5.45,0,0,0-.872-.627l-2.8,3.731,1.9-4.21a3.21,3.21,0,0,0-.737-.563,6.708,6.708,0,0,0-1.082-.447h0l-1.849,3.749.966-4.011a4.326,4.326,0,0,0-.795-.411,4.356,4.356,0,0,0-.875-.209l-1.57,3.455.567-3.636a5.334,5.334,0,0,0-.681-.167,6.968,6.968,0,0,0-.751-.08h0l-.95,3.54.191-3.734Z" transform="translate(-4685.234 9873.094)" fill="#c7beb7"/>
    <g id="Rectangle_1935" data-name="Rectangle 1935" transform="translate(161 281)" fill="none" stroke="#707070" stroke-width="1" opacity="0">
      <rect width="20" height="20" stroke="none"/>
      <rect x="0.5" y="0.5" width="19" height="19" fill="none"/>
    </g>
  </g>
</svg>
