<svg xmlns="http://www.w3.org/2000/svg" width="24" height="24" viewBox="0 0 24 24">
  <g id="Measurement_4" data-name="Measurement 4" transform="translate(-161 -155)">
    <g id="Rectangle_1934" data-name="Rectangle 1934" transform="translate(161 155)" fill="none" stroke="#707070" stroke-width="1" opacity="0">
      <rect width="24" height="24" stroke="none"/>
      <rect x="0.5" y="0.5" width="23" height="23" fill="none"/>
    </g>
    <path id="Measurement_4-2" data-name="Measurement 4" d="M17.821,19.289l-14.979.027a1.632,1.632,0,0,1-1.1-.374,2.035,2.035,0,0,1-.329-1.2L1.324,3.208H0L1.959,0,3.92,3.208H2.579l.147,13.856a1.25,1.25,0,0,0,.191.778,1.067,1.067,0,0,0,.724.227h14.18V16.752l3.208,1.96-3.208,1.96Zm1.309-2.5L19.139,2.85a1.246,1.246,0,0,0-.19-.778,1.068,1.068,0,0,0-.724-.227H3.839L3.831.708H18.75a1.645,1.645,0,0,1,1.1.373,2.035,2.035,0,0,1,.329,1.2V16.79Zm-8.754-5.034V9.062a.8.8,0,0,0-.14-.526.625.625,0,0,0-.5-.167.705.705,0,0,0-.7.485v2.9H7.91V9.066a.789.789,0,0,0-.145-.531.627.627,0,0,0-.491-.165.732.732,0,0,0-.7.4v2.988H5.45V7.53H6.508L6.543,8a1.486,1.486,0,0,1,1.215-.551,1.125,1.125,0,0,1,1.12.645,1.452,1.452,0,0,1,1.27-.645,1.263,1.263,0,0,1,1.023.4,1.84,1.84,0,0,1,.336,1.2v2.7Zm2.581-5.016V6.258l1.15-1.225a2.858,2.858,0,0,0,.35-.452.728.728,0,0,0,.113-.366.542.542,0,0,0-.12-.373.432.432,0,0,0-.342-.135.466.466,0,0,0-.377.165.652.652,0,0,0-.138.433h-.708a1.165,1.165,0,0,1,.156-.593,1.086,1.086,0,0,1,.438-.421,1.328,1.328,0,0,1,.642-.152,1.257,1.257,0,0,1,.853.264.933.933,0,0,1,.3.744,1.2,1.2,0,0,1-.137.537,3,3,0,0,1-.469.637l-.808.851h1.528v.569Z" transform="translate(162.486 156.802)" fill="#ff770e"/>
  </g>
</svg>
