<svg xmlns="http://www.w3.org/2000/svg" width="24" height="24" viewBox="0 0 24 24">
  <g id="Measurement_2" data-name="Measurement 2" transform="translate(-161 -257)">
    <path id="Measurement_2-2" data-name="Measurement 2" d="M0,20.246V0H5.393V20.246ZM.818,19.3H4.563L4.569.912H.818V2.221h2.3v.852H.818V4.688H2.354l.005.747H.818V6.527h2.3v.546H.818V7.43h2.92v.544H.818v.58H2.057v.909H.818v1.353H2.06v.791H.818v.609h2.3v.958H.818v2.481h.73l-.006.792H.818v1.36H2.36l-.005.76H.818Zm5.6-1.923H7.646V2.668H6.421L8.079.412,9.9,2.668H8.556V17.375H9.9L8.079,19.913Z" transform="translate(167.844 258.781)" fill="#ff770e"/>
    <g id="Rectangle_1935" data-name="Rectangle 1935" transform="translate(161 257)" fill="none" stroke="#707070" stroke-width="1" opacity="0">
      <rect width="24" height="24" stroke="none"/>
      <rect x="0.5" y="0.5" width="23" height="23" fill="none"/>
    </g>
  </g>
</svg>
