<svg xmlns="http://www.w3.org/2000/svg" width="20" height="20" viewBox="0 0 20 20">
  <g id="Measurement_2" data-name="Measurement 2" transform="translate(-161 -257)">
    <path id="Measurement_2-2" data-name="Measurement 2" d="M4848-9573.72V-9590h3.959v16.279Zm.428-.54h3.122l0-15.32h-3.124v1.09h1.921v.435h-1.921v1.619h1.282v.436h-1.282v1.1h1.921v.458h-1.921v.3h2.434v.454h-2.434v.482h1.033v.421h-1.033v1.688h1.033v.437h-1.033v.507h1.921v.464h-1.921v2.627h.605v.435h-.605v1.357h1.282v.41h-1.282Zm4.669-1.6h1.2v-12.256h-1.2l1.382-1.881,1.519,1.881h-1.244v12.256H4856l-1.519,2.116Z" transform="translate(-4681.044 9848.826)" fill="#c7beb7"/>
    <g id="Rectangle_1935" data-name="Rectangle 1935" transform="translate(161 257)" fill="none" stroke="#707070" stroke-width="1" opacity="0">
      <rect width="20" height="20" stroke="none"/>
      <rect x="0.5" y="0.5" width="19" height="19" fill="none"/>
    </g>
  </g>
</svg>
