<svg xmlns="http://www.w3.org/2000/svg" width="24" height="24" viewBox="0 0 24 24">
  <defs>
    <style>
      .cls-1 {
        fill: #c7beb7;
      }

      .cls-2, .cls-4 {
        fill: none;
      }

      .cls-2 {
        stroke: #707070;
        opacity: 0;
      }

      .cls-3 {
        stroke: none;
      }
    </style>
  </defs>
  <g id="Measurement_2" data-name="Measurement 2" transform="translate(-161 -257)">
    <path id="Measurement_2-2" data-name="Measurement 2" class="cls-1" d="M0,20.246V0H5.393V20.246ZM.818,19.3H4.563L4.569.912H.818V2.221H3.123l0,.852H.818V4.688H2.354l.005.747H.818V6.527H3.123v.546H.818v.357h2.92v.544H.818v.58H2.057l0,.909H.818v1.353H2.06l0,.791H.818v.609H3.123l0,.958H.818v2.481h.73l-.006.792H.818v1.36H2.36l-.005.76H.818Zm5.6-1.923H7.646V2.668H6.421L8.079.412,9.9,2.668H8.556V17.375H9.9L8.079,19.913Z" transform="translate(167.844 258.781)"/>
    <g id="Rectangle_1935" data-name="Rectangle 1935" class="cls-2" transform="translate(161 257)">
      <rect class="cls-3" width="24" height="24"/>
      <rect class="cls-4" x="0.5" y="0.5" width="23" height="23"/>
    </g>
  </g>
</svg>
