<svg xmlns="http://www.w3.org/2000/svg" width="20" height="20" viewBox="0 0 20 20">
  <g id="Measurement_4" data-name="Measurement 4" transform="translate(-161 -155)">
    <g id="Rectangle_1934" data-name="Rectangle 1934" transform="translate(161 155)" fill="none" stroke="#707070" stroke-width="1" opacity="0">
      <rect width="20" height="20" stroke="none"/>
      <rect x="0.5" y="0.5" width="19" height="19" fill="none"/>
    </g>
    <path id="Measurement_4-2" data-name="Measurement 4" d="M4862.851-9574.229H4850.6a1.368,1.368,0,0,1-.915-.311,1.69,1.69,0,0,1-.274-1v-11.785H4848l1.632-2.674,1.634,2.674h-1.42v11.808a1.04,1.04,0,0,0,.156.649.885.885,0,0,0,.6.188h12.243v-1.359l2.674,1.634-2.674,1.635Zm1.528-1.781v-12.108a1.052,1.052,0,0,0-.159-.65.879.879,0,0,0-.6-.187h-12.426v-.455h12.434a1.38,1.38,0,0,1,.915.313,1.7,1.7,0,0,1,.274,1v12.087Zm-6.77-2.859v-2.751a.837.837,0,0,0-.176-.59.767.767,0,0,0-.583-.187.78.78,0,0,0-.529.176.929.929,0,0,0-.287.455l0,2.9h-.951v-2.782a.677.677,0,0,0-.76-.746.837.837,0,0,0-.809.467v3.062h-.948v-4.227h.893l.029.44a1.517,1.517,0,0,1,1.218-.52,1.169,1.169,0,0,1,1.16.649,1.5,1.5,0,0,1,1.3-.649,1.311,1.311,0,0,1,1.04.388,1.708,1.708,0,0,1,.352,1.141v2.777Zm1.194-4.679v-.409l1.184-1.29a3.076,3.076,0,0,0,.366-.479.774.774,0,0,0,.108-.383.581.581,0,0,0-.142-.412.5.5,0,0,0-.385-.156.574.574,0,0,0-.445.176.686.686,0,0,0-.159.481h-.594a1.185,1.185,0,0,1,.146-.585,1.029,1.029,0,0,1,.424-.4,1.335,1.335,0,0,1,.633-.145,1.207,1.207,0,0,1,.818.26.914.914,0,0,1,.3.72,1.212,1.212,0,0,1-.151.559,3.085,3.085,0,0,1-.491.662l-.869.931h1.651v.475Z" transform="translate(-4685.763 9746.502)" fill="#c7beb7"/>
  </g>
</svg>
