<svg xmlns="http://www.w3.org/2000/svg" width="24" height="24" viewBox="0 0 24 24">
  <defs>
    <style>
      .cls-1 {
        fill: #c7beb7;
      }

      .cls-2, .cls-4 {
        fill: none;
      }

      .cls-2 {
        stroke: #707070;
        opacity: 0;
      }

      .cls-3 {
        stroke: none;
      }
    </style>
  </defs>
  <g id="Measurement_3" data-name="Measurement 3" transform="translate(-161 -329)">
    <path id="Measurement_3-2" data-name="Measurement 3" class="cls-1" d="M-4771.347,9864.687c-.047-1.849-2.347-1.5-2.791-.6-2.565-.193-7.408-.306-9.461-.349a.935.935,0,0,0-1.819.349c-.1,1.346,1.3,1.27,1.908.6a41.877,41.877,0,0,1,4.712,7.439c1.288,3.163.558,4.446.558,4.446l-8.713-2.062s.622-1.692-.919-1.158,0,1.524,0,1.524l-4.034,5.377a1.124,1.124,0,0,0-.681,0c-.192.076-1.721.847-.242,1.975.825.8,1.414.066,1.707-.728.07-.066,0-.661,0-.661l3.917-5.465,10.355,2.224a7.458,7.458,0,0,0-.5-5.458c-1.406-3.226-5.129-7.453-5.129-7.453s4.85.117,8.338.293C-4773.858,9865.979-4771.3,9866.537-4771.347,9864.687Z" transform="translate(4955.788 -9532.146)"/>
    <g id="Rectangle_1935" data-name="Rectangle 1935" class="cls-2" transform="translate(161 329)">
      <rect class="cls-3" width="24" height="24"/>
      <rect class="cls-4" x="0.5" y="0.5" width="23" height="23"/>
    </g>
  </g>
</svg>
