<svg xmlns="http://www.w3.org/2000/svg" width="20" height="20" viewBox="0 0 20 20">
  <g id="Measurement_3" data-name="Measurement 3" transform="translate(-161 -329)">
    <path id="Measurement_3-2" data-name="Measurement 3" d="M-4775.883,9864.238c-.04-1.541-1.217-.276-1.7-.312-2.138-.161-5.945-.255-7.657-.291-.282-.006-.918-.466-.985.291s.646-.046,1.06.5a34.9,34.9,0,0,1,3.926,6.2c1.073,2.636.465,3.705.465,3.705l-7.261-1.719a.385.385,0,0,0-.55-.415c-.593.181-.216.721-.216.721l-3.361,4.48s-1.892.389-.675,1.2,1.118-.936,1.118-.936l3.467-4.587,7.893,1.926a6.215,6.215,0,0,0-.414-4.548,31.236,31.236,0,0,0-4.274-6.211s4.7.1,7.607.244C-4777.141,9864.5-4775.843,9865.78-4775.883,9864.238Z" transform="translate(4955.567 -9532.472)" fill="#c7beb7"/>
    <g id="Rectangle_1935" data-name="Rectangle 1935" transform="translate(161 329)" fill="none" stroke="#707070" stroke-width="1" opacity="0">
      <rect width="20" height="20" stroke="none"/>
      <rect x="0.5" y="0.5" width="19" height="19" fill="none"/>
    </g>
  </g>
</svg>
