<svg xmlns="http://www.w3.org/2000/svg" width="24" height="24" viewBox="0 0 24 24">
  <g id="Object_4" data-name="Object 4" transform="translate(-161 -377)">
    <path id="Union_28" data-name="Union 28" d="M10.682,15.521c-.026-.074-.056-.149-.083-.222v-.01c-.03-.079-.059-.154-.089-.23-.655-1.723-1.27-3.352-1.81-3.352H8.687c-.53.021-1.146,1.6-1.8,3.276V15c-.794,2.034-1.692,4.34-2.635,4.34a.6.6,0,0,1-.187-.03c-1.749-.574-2.522-9.562-2.552-9.944a11.311,11.311,0,0,1-1.276-3A5.094,5.094,0,0,1,1.509,1.08,3.639,3.639,0,0,1,3.972.069c2.5,0,4.693,2.73,4.715,2.758h0C8.907,2.533,10.867,0,13.109,0a3.357,3.357,0,0,1,2.383,1.08,5.288,5.288,0,0,1,1.314,4.9,2.963,2.963,0,0,0-.675-.143A4.018,4.018,0,0,0,15.051,1.9a2.738,2.738,0,0,0-1.942-.889c-2.329,0-4.417,3.425-4.435,3.462-.021-.037-2.076-3.4-4.456-3.4A2.941,2.941,0,0,0,2.25,1.9,4.345,4.345,0,0,0,1.221,6.709,9.864,9.864,0,0,0,2.58,9.379c0,.089.238,8.828,1.74,8.828h.018c.773-.033,1.478-2.03,2.159-3.957s1.4-3.937,2.177-3.993H8.7c.774,0,1.5,2.111,2.148,3.975l.032.091c.69,2,1.345,3.891,2.053,3.891a.422.422,0,0,0,.06-.006c.428-.07,1.172-1.029,1.356-6.686a2.881,2.881,0,0,0,.783.337A3.055,3.055,0,0,1,12.91,8.891a2.97,2.97,0,1,1,5.937,0,3.136,3.136,0,0,1-.422,1.578l2.537,2.442-.539.6-2.5-2.4a2.894,2.894,0,0,1-2.665.783c-.286,2.6-.937,7.021-2.082,7.416a.511.511,0,0,1-.172.03C12.2,19.336,11.449,17.529,10.682,15.521Zm4.482-3.655-.025-.008ZM13.7,8.891a2.178,2.178,0,1,0,2.177-2.245A2.219,2.219,0,0,0,13.7,8.891Z" transform="translate(162.521 379.332)" fill="#ff770e"/>
    <g id="Rectangle_1935" data-name="Rectangle 1935" transform="translate(161 377)" fill="none" stroke="#707070" stroke-width="1" opacity="0">
      <rect width="24" height="24" stroke="none"/>
      <rect x="0.5" y="0.5" width="23" height="23" fill="none"/>
    </g>
  </g>
</svg>
