<svg xmlns="http://www.w3.org/2000/svg" width="20" height="20" viewBox="0 0 20 20">
  <g id="Object_1" data-name="Object 1" transform="translate(-161 -427)">
    <path id="Union_29" data-name="Union 29" d="M4854.023-9573.716a1.772,1.772,0,0,1-.427-1.021c0-.364.123-.431.128-.434.051,0,.515.041,1.31.041h1.406s0,0,.008.008.063.1.053.413a1.908,1.908,0,0,1-.578,1.085,1.631,1.631,0,0,1-1.011.368A1.4,1.4,0,0,1,4854.023-9573.716Zm.033-.969a.15.15,0,0,0-.034.118,1.245,1.245,0,0,0,.211.513,1.065,1.065,0,0,0,.8.325,1.073,1.073,0,0,0,.819-.393l0,0a1.514,1.514,0,0,0,.231-.538.1.1,0,0,0-.023-.081c-.03-.031-.089-.044-.2-.044-.066,0-.15,0-.246.009h0c-.153.009-.343.018-.578.018h-.49C4854.263-9574.763,4854.119-9574.751,4854.056-9574.685Zm-.2-.8c-.112,0-.325-.055-.5-.415a1.936,1.936,0,0,1-.262-.941.7.7,0,0,1,.262-.556,8.352,8.352,0,0,0,1.68.2,8,8,0,0,0,1.662-.2.6.6,0,0,1,.284.556,1.562,1.562,0,0,1-.284.941c-.228.36-.455.415-.569.415a5.734,5.734,0,0,1-1.215.161A3.652,3.652,0,0,1,4853.854-9575.488Zm-.472-1.448a.594.594,0,0,0-.039.3.872.872,0,0,0,.211.564.649.649,0,0,0,.519.182h.02a3.123,3.123,0,0,0,.829.089,8.056,8.056,0,0,0,1.1-.089.8.8,0,0,0,.511-.3.752.752,0,0,0,.233-.54.354.354,0,0,0-.032-.19.168.168,0,0,0-.16-.084h0a7.933,7.933,0,0,1-1.536.177,7.919,7.919,0,0,1-1.533-.177h0A.128.128,0,0,0,4853.383-9576.937Zm-.178-.625a.9.9,0,0,1-.741-.414,1.5,1.5,0,0,1-.389-.941.679.679,0,0,1,.389-.555,18.057,18.057,0,0,0,2.49.2,17.29,17.29,0,0,0,2.462-.2.609.609,0,0,1,.421.555,1.237,1.237,0,0,1-.421.941,1.158,1.158,0,0,1-.842.414,12.205,12.205,0,0,1-1.8.161A7.75,7.75,0,0,1,4853.2-9577.562Zm-.7-1.447a.42.42,0,0,0-.058.3.739.739,0,0,0,.313.564,1.282,1.282,0,0,0,.77.182h.028a6.92,6.92,0,0,0,1.229.089c.79,0,1.618-.089,1.625-.089a1.388,1.388,0,0,0,.756-.3c.277-.212.331-.338.346-.539a.258.258,0,0,0-.047-.19.3.3,0,0,0-.238-.084h0a17.01,17.01,0,0,1-2.276.177,16.948,16.948,0,0,1-2.271-.177h0A.21.21,0,0,0,4852.506-9579.009Zm-.964-.769a2.3,2.3,0,0,1-1.367-.414,1.3,1.3,0,0,1-.472-.94.679.679,0,0,1,.678-.679,40.7,40.7,0,0,0,4.74.322,40.771,40.771,0,0,0,4.748-.322.716.716,0,0,1,.525.22.591.591,0,0,1,.153.459c-.033.4-.2.6-.795.94a3.263,3.263,0,0,1-1.584.414c-.017,0-1.75.162-3.388.162S4851.558-9579.775,4851.542-9579.777Zm-1.315-1.147a.648.648,0,0,0,.426.518,3.1,3.1,0,0,0,1.234.227c.013,0,1.451.09,2.923.09,1.488,0,3.045-.089,3.059-.09a4.188,4.188,0,0,0,1.422-.3c.521-.213.623-.338.651-.54a.176.176,0,0,0-.04-.148.683.683,0,0,0-.5-.125h0c-.226.019-2.266.177-4.283.177s-4.051-.158-4.276-.177h-.154C4850.434-9581.3,4850.265-9581.271,4850.227-9580.925Zm-.933-1.311h0a9.244,9.244,0,0,1-1.091-2.489,5.263,5.263,0,0,1-.136-2.244,3.609,3.609,0,0,1,1.228-2.137,3.178,3.178,0,0,1,2.111-.837,4.879,4.879,0,0,1,2.832,1.145,8.227,8.227,0,0,1,1.2,1.144.005.005,0,0,0,0,0,8.035,8.035,0,0,1,1.123-1.17,4.375,4.375,0,0,1,2.661-1.173,2.918,2.918,0,0,1,2.039.895,3.874,3.874,0,0,1,1.175,2.2,5.45,5.45,0,0,1-.131,2.236,8.922,8.922,0,0,1-1.043,2.438,47.355,47.355,0,0,1-5.824.405A56.378,56.378,0,0,1,4849.294-9582.235Zm.451-6.472a3.075,3.075,0,0,0-1.128,1.851,4.357,4.357,0,0,0,.125,1.957,7.932,7.932,0,0,0,1,2.18h0a46.328,46.328,0,0,0,5.644.413c2.7,0,5.364-.251,5.389-.253a8.359,8.359,0,0,0,1.021-2.215,4.712,4.712,0,0,0,.162-2.006,3.2,3.2,0,0,0-1.06-1.927,2.46,2.46,0,0,0-1.667-.686,3.094,3.094,0,0,0-1.455.405,6.147,6.147,0,0,0-1.228.89,9.2,9.2,0,0,0-1.164,1.294h0a8.747,8.747,0,0,0-1.187-1.271,6.224,6.224,0,0,0-1.259-.874,3.326,3.326,0,0,0-1.5-.4A2.653,2.653,0,0,0,4849.745-9588.707Z" transform="translate(-4684.25 10018.629)" fill="#c7beb7"/>
    <g id="Rectangle_1935" data-name="Rectangle 1935" transform="translate(161 427)" fill="none" stroke="#707070" stroke-width="1" opacity="0">
      <rect width="20" height="20" stroke="none"/>
      <rect x="0.5" y="0.5" width="19" height="19" fill="none"/>
    </g>
  </g>
</svg>
