<svg xmlns="http://www.w3.org/2000/svg" width="20" height="20" viewBox="0 0 20 20">
  <g id="Object_4" data-name="Object 4" transform="translate(-161 -377)">
    <path id="Union_28" data-name="Union 28" d="M4857.561-9575.608a18.464,18.464,0,0,1-.914-2.081l-.031-.083-.107-.274v0c-.529-1.37-1.028-2.663-1.467-2.663h-.009c-.43.017-.928,1.267-1.455,2.592v.006c-.643,1.618-1.372,3.453-2.136,3.453a.518.518,0,0,1-.151-.024c-.331-.105-.646-.587-.935-1.428a18.256,18.256,0,0,1-.643-2.691c-.334-1.912-.486-3.751-.488-3.769a8.858,8.858,0,0,1-1.032-2.381,5.1,5.1,0,0,1-.129-2.146,3.471,3.471,0,0,1,1.162-2.043,2.988,2.988,0,0,1,1.995-.8,4.577,4.577,0,0,1,2.677,1.095,7.992,7.992,0,0,1,1.136,1.089l0,.006s0,0,0,0a7.633,7.633,0,0,1,1.061-1.118,4.107,4.107,0,0,1,2.516-1.121,2.739,2.739,0,0,1,1.927.854,3.717,3.717,0,0,1,1.11,2.1,5.057,5.057,0,0,1-.046,1.789,2.432,2.432,0,0,1,1.652,2.309,2.44,2.44,0,0,1-.342,1.25l2.054,1.938-.437.474-2.019-1.9a2.381,2.381,0,0,1-1.658.672,2.408,2.408,0,0,1-.5-.052c-.07.628-.148,1.221-.231,1.763a18.922,18.922,0,0,1-.578,2.691c-.265.843-.559,1.322-.873,1.428a.442.442,0,0,1-.141.024C4858.231-9574.663,4857.914-9574.973,4857.561-9575.608Zm-1.616-4.749a21.8,21.8,0,0,1,.861,2.1l0,.009.025.065v0c.273.737.555,1.5.835,2.064.313.63.59.936.847.936a.473.473,0,0,0,.05,0c.273-.043.526-.457.755-1.231a18.225,18.225,0,0,0,.5-2.528c.074-.527.143-1.106.2-1.722a2.092,2.092,0,0,0,.3.089,2.427,2.427,0,0,1-1.878-2.372,2.418,2.418,0,0,1,2.4-2.43,2.4,2.4,0,0,1,.438.04,4.7,4.7,0,0,0,.04-1.51,3.39,3.39,0,0,0-1.022-1.985,2.361,2.361,0,0,0-1.662-.735,2.878,2.878,0,0,0-1.376.393,5.71,5.71,0,0,0-1.155.868,8.519,8.519,0,0,0-1.092,1.259l0,0a8.713,8.713,0,0,0-1.151-1.243,6.123,6.123,0,0,0-1.219-.86,3.183,3.183,0,0,0-1.449-.39,2.539,2.539,0,0,0-1.7.685,3.194,3.194,0,0,0-1.077,1.937,4.967,4.967,0,0,0,.145,2.06,8.824,8.824,0,0,0,1,2.3v.01c.029.325.189,2.029.467,3.68a17.364,17.364,0,0,0,.584,2.535c.258.766.532,1.153.815,1.153h.014c.624-.028,1.211-1.564,1.778-3.052v0c.569-1.491,1.157-3.035,1.789-3.078h.026C4855.324-9581.316,4855.617-9581,4855.945-9580.357Zm3.144-2.59a1.773,1.773,0,0,0,1.761,1.782,1.773,1.773,0,0,0,1.762-1.782,1.773,1.773,0,0,0-1.762-1.782A1.773,1.773,0,0,0,4859.089-9582.947Z" transform="translate(-4685.481 9969.332)" fill="#c7beb7"/>
    <g id="Rectangle_1935" data-name="Rectangle 1935" transform="translate(161 377)" fill="none" stroke="#707070" stroke-width="1" opacity="0">
      <rect width="20" height="20" stroke="none"/>
      <rect x="0.5" y="0.5" width="19" height="19" fill="none"/>
    </g>
  </g>
</svg>
