<svg xmlns="http://www.w3.org/2000/svg" width="24" height="24" viewBox="0 0 24 24">
  <defs>
    <style>
      .cls-1 {
        fill: #c7beb7;
      }

      .cls-2, .cls-4 {
        fill: none;
      }

      .cls-2 {
        stroke: #707070;
        opacity: 0;
      }

      .cls-3 {
        stroke: none;
      }
    </style>
  </defs>
  <g id="Object_1" data-name="Object 1" transform="translate(-161 -427)">
    <path id="Union_29" data-name="Union 29" class="cls-1" d="M7.228,19.543a2.133,2.133,0,0,1-.514-1.227c0-.445.153-.521.153-.521s.569.049,1.571.049h1.687c.006,0,.089.032.075.5a2.3,2.3,0,0,1-.692,1.3,1.964,1.964,0,0,1-1.213.441A1.675,1.675,0,0,1,7.228,19.543Zm.185-1.051a.138.138,0,0,0-.035.112,1.242,1.242,0,0,0,.222.5,1.174,1.174,0,0,0,.844.312,1.128,1.128,0,0,0,.86-.381,1.439,1.439,0,0,0,.246-.522.089.089,0,0,0-.023-.075c-.029-.032-.093-.047-.211-.047-.069,0-.159.006-.26.012-.162.006-.361.018-.612.018-.113,0-.217,0-.309,0H7.927C7.626,18.413,7.473,18.425,7.413,18.492Zm-.39-1.081c-.133,0-.39-.063-.6-.5a2.327,2.327,0,0,1-.314-1.128.844.844,0,0,1,.314-.668,9.743,9.743,0,0,0,2.016.24,9.534,9.534,0,0,0,2-.24.718.718,0,0,1,.341.668,1.885,1.885,0,0,1-.341,1.128c-.274.434-.546.5-.684.5a6.6,6.6,0,0,1-1.456.193A4.256,4.256,0,0,1,7.023,17.411Zm-.3-1.678a.469.469,0,0,0-.064.335.853.853,0,0,0,.226.572.726.726,0,0,0,.554.182h.023a3.64,3.64,0,0,0,.89.09,8.828,8.828,0,0,0,1.175-.09.873.873,0,0,0,.548-.307.73.73,0,0,0,.249-.548.3.3,0,0,0-.055-.223.21.21,0,0,0-.15-.056,8.719,8.719,0,0,1-1.649.18,8.594,8.594,0,0,1-1.644-.18A.14.14,0,0,0,6.726,15.733Zm-.482-.809a1.085,1.085,0,0,1-.89-.5A1.791,1.791,0,0,1,4.889,13.3a.825.825,0,0,1,.464-.668,20.952,20.952,0,0,0,2.99.24,20.478,20.478,0,0,0,2.955-.24c.02.01.526.2.505.668a1.507,1.507,0,0,1-.505,1.129,1.388,1.388,0,0,1-1.011.5,14.4,14.4,0,0,1-2.16.193A9.165,9.165,0,0,1,6.243,14.925Zm-.63-1.519a.278.278,0,0,0-.052.238.611.611,0,0,0,.344.48,1.751,1.751,0,0,0,.84.152h.041a10.456,10.456,0,0,0,1.361.073c.866,0,1.788-.073,1.8-.073a1.852,1.852,0,0,0,.834-.256c.306-.18.367-.286.381-.457a.172.172,0,0,0-.041-.15.363.363,0,0,0-.274-.083,24.654,24.654,0,0,1-2.516.149,24.423,24.423,0,0,1-2.513-.149A.253.253,0,0,0,5.613,13.406ZM4.248,12.268a2.772,2.772,0,0,1-1.641-.5,1.573,1.573,0,0,1-.566-1.13.816.816,0,0,1,.814-.814,48.683,48.683,0,0,0,5.687.388,49.25,49.25,0,0,0,5.7-.388.855.855,0,0,1,.627.266.7.7,0,0,1,.185.549c-.041.488-.237.72-.956,1.13a3.9,3.9,0,0,1-1.9.5c-.02,0-2.111.193-4.063.193C6.167,12.461,4.268,12.271,4.248,12.268Zm-1.219-1.3s.017.295.482.459a4.46,4.46,0,0,0,1.4.2c.015,0,1.626.081,3.319.081s3.457-.077,3.474-.081a5.92,5.92,0,0,0,1.615-.266c.592-.189.708-.3.74-.479a.135.135,0,0,0-.029-.114c-.069-.085-.266-.128-.58-.128-.023,0-2.461.155-4.87.155s-4.834-.155-4.857-.155H3.635l-.081,0C3.266,10.639,3.072,10.665,3.029,10.971ZM1.55,9.316A11.111,11.111,0,0,1,.238,6.33,4.967,4.967,0,0,1,1.55,1.073a3.81,3.81,0,0,1,2.533-1c2.576,0,4.82,2.718,4.843,2.746v0C9.148,2.523,11.153,0,13.469,0a3.516,3.516,0,0,1,2.446,1.073,5.279,5.279,0,0,1,1.25,5.32,10.748,10.748,0,0,1-1.25,2.923l-.009,0a56.994,56.994,0,0,1-6.98.485A66.9,66.9,0,0,1,1.55,9.316ZM2.4,1.9a3.609,3.609,0,0,0-1.15,4.121A8.315,8.315,0,0,0,2.4,8.377a55.751,55.751,0,0,0,6.466.448c3.12,0,6.146-.272,6.175-.274a8.606,8.606,0,0,0,1.169-2.395A3.838,3.838,0,0,0,15.185,1.9a2.907,2.907,0,0,0-1.909-.742c-2.29,0-4.384,2.775-4.407,2.8C8.848,3.933,6.7,1.209,4.345,1.209A3.127,3.127,0,0,0,2.4,1.9Z" transform="translate(164.302 428.955)"/>
    <g id="Rectangle_1935" data-name="Rectangle 1935" class="cls-2" transform="translate(161 427)">
      <rect class="cls-3" width="24" height="24"/>
      <rect class="cls-4" x="0.5" y="0.5" width="23" height="23"/>
    </g>
  </g>
</svg>
