<svg xmlns="http://www.w3.org/2000/svg" width="20" height="20" viewBox="0 0 20 20">
  <g id="Object_2" data-name="Object 2" transform="translate(-161 -453)">
    <path id="Union_30" data-name="Union 30" d="M4853.895-9574.066a1.728,1.728,0,0,1-.418-1c0-.345.113-.417.125-.424h0c.154.013.587.041,1.277.041h1.375a.023.023,0,0,1,.009.007c.018.02.061.1.051.4a1.876,1.876,0,0,1-.565,1.062,1.6,1.6,0,0,1-.989.36A1.372,1.372,0,0,1,4853.895-9574.066Zm.032-.949a.152.152,0,0,0-.034.117,1.18,1.18,0,0,0,.205.5v0a1.046,1.046,0,0,0,.784.316,1.055,1.055,0,0,0,.8-.383l0,0a1.447,1.447,0,0,0,.227-.527.1.1,0,0,0-.023-.079c-.029-.031-.087-.043-.2-.043-.063,0-.144,0-.241.009h0c-.171.009-.345.018-.565.018h-.48C4854.128-9575.091,4853.987-9575.08,4853.926-9575.016Zm-.2-.785h0c-.108,0-.318-.053-.489-.406a1.888,1.888,0,0,1-.256-.922.676.676,0,0,1,.256-.542h0a8.228,8.228,0,0,0,1.64.193,7.821,7.821,0,0,0,1.622-.193h0a.58.58,0,0,1,.278.542,1.529,1.529,0,0,1-.278.922c-.223.354-.444.406-.556.406h0a5.516,5.516,0,0,1-1.185.158A3.546,3.546,0,0,1,4853.731-9575.8Zm-.464-1.417a.574.574,0,0,0-.038.292.856.856,0,0,0,.206.553.636.636,0,0,0,.508.178h.019a3.039,3.039,0,0,0,.811.087,7.846,7.846,0,0,0,1.073-.087.779.779,0,0,0,.5-.3.739.739,0,0,0,.229-.527.359.359,0,0,0-.031-.187.167.167,0,0,0-.157-.082,7.666,7.666,0,0,1-1.5.174,7.639,7.639,0,0,1-1.5-.174h0A.127.127,0,0,0,4853.267-9577.218Zm-.174-.611a.887.887,0,0,1-.726-.405,1.466,1.466,0,0,1-.38-.922.67.67,0,0,1,.38-.543,17.545,17.545,0,0,0,2.437.2,16.7,16.7,0,0,0,2.409-.2.6.6,0,0,1,.413.543,1.211,1.211,0,0,1-.413.922,1.133,1.133,0,0,1-.824.405,11.983,11.983,0,0,1-1.762.158A7.5,7.5,0,0,1,4853.093-9577.829Zm-.683-1.416a.407.407,0,0,0-.057.292.724.724,0,0,0,.306.553,1.253,1.253,0,0,0,.753.178h.028a7.082,7.082,0,0,0,1.2.086c.735,0,1.5-.078,1.586-.086h0a1.373,1.373,0,0,0,.74-.3c.272-.208.324-.332.338-.528a.255.255,0,0,0-.045-.187.292.292,0,0,0-.233-.082h0a16.464,16.464,0,0,1-2.226.173,16.5,16.5,0,0,1-2.221-.173h0A.2.2,0,0,0,4852.41-9579.245Zm8.9-.847a2.47,2.47,0,0,1-1.716.689,2.489,2.489,0,0,1-2.486-2.488,2.488,2.488,0,0,1,2.486-2.485,2.489,2.489,0,0,1,2.487,2.485,2.466,2.466,0,0,1-.355,1.279l2.126,1.983-.452.484Zm-3.539-1.8a1.825,1.825,0,0,0,1.823,1.824,1.826,1.826,0,0,0,1.824-1.824,1.825,1.825,0,0,0-1.824-1.822A1.825,1.825,0,0,0,4857.775-9581.891Zm-6.31,1.894a2.253,2.253,0,0,1-1.337-.405,1.285,1.285,0,0,1-.461-.922.664.664,0,0,1,.663-.662,39.743,39.743,0,0,0,4.638.314c.654,0,1.376-.025,2.147-.076a2.565,2.565,0,0,0,.052.385c-.8.035-1.538.053-2.2.053-1.921,0-3.823-.145-4.184-.173h-.151c-.249,0-.414.025-.451.364a.63.63,0,0,0,.417.506,3.036,3.036,0,0,0,1.208.223h0c.246.014,1.538.086,2.856.086,1.351,0,2.792-.076,2.951-.084a2.6,2.6,0,0,0,.37.392h-.035c-.016,0-1.718.158-3.315.158S4851.48-9580,4851.466-9580Zm-2.2-2.405a8.906,8.906,0,0,1-1.069-2.436,5.144,5.144,0,0,1-.133-2.2,3.536,3.536,0,0,1,1.2-2.092,3.111,3.111,0,0,1,2.065-.819,4.769,4.769,0,0,1,2.771,1.12,7.882,7.882,0,0,1,1.178,1.119h0v0a7.871,7.871,0,0,1,1.1-1.145,4.278,4.278,0,0,1,2.6-1.147,2.856,2.856,0,0,1,2,.875,3.8,3.8,0,0,1,1.149,2.148,5.34,5.34,0,0,1-.128,2.188,8.274,8.274,0,0,1-.467,1.335,2.46,2.46,0,0,0-.407-.4,7.425,7.425,0,0,0,.38-1.034,4.607,4.607,0,0,0,.159-1.963,3.133,3.133,0,0,0-1.037-1.886,2.407,2.407,0,0,0-1.631-.67,3.039,3.039,0,0,0-1.423.4,6,6,0,0,0-1.2.871,9.007,9.007,0,0,0-1.139,1.266v0a8.688,8.688,0,0,0-1.162-1.244,6.1,6.1,0,0,0-1.232-.855,3.256,3.256,0,0,0-1.469-.389,2.59,2.59,0,0,0-1.661.624,3.011,3.011,0,0,0-1.1,1.812,4.275,4.275,0,0,0,.123,1.915,7.834,7.834,0,0,0,.981,2.132h0a44.69,44.69,0,0,0,5.521.4c.612,0,1.271-.014,1.958-.039a2.516,2.516,0,0,0-.073.458c-.64.031-1.257.048-1.837.048A55.091,55.091,0,0,1,4849.267-9582.4Z" transform="translate(-4684.25 10044.758)" fill="#c7beb7"/>
    <g id="Rectangle_1935" data-name="Rectangle 1935" transform="translate(161 453)" fill="none" stroke="#707070" stroke-width="1" opacity="0">
      <rect width="20" height="20" stroke="none"/>
      <rect x="0.5" y="0.5" width="19" height="19" fill="none"/>
    </g>
  </g>
</svg>
