<svg xmlns="http://www.w3.org/2000/svg" width="24" height="24" viewBox="0 0 24 24">
  <g id="object_3" data-name="object 3" transform="translate(-161 -353)">
    <path id="Subtraction_70" data-name="Subtraction 70" d="M4.621,20.384a.672.672,0,0,1-.2-.032C2.487,19.742,1.648,9.965,1.64,9.866A11.728,11.728,0,0,1,.253,6.7,5.257,5.257,0,0,1,1.64,1.138,4.034,4.034,0,0,1,4.323.073c2.728,0,5.1,2.878,5.128,2.907V2.975C9.686,2.671,11.808,0,14.26,0a3.707,3.707,0,0,1,2.591,1.138,5.585,5.585,0,0,1,1.326,5.631,11.316,11.316,0,0,1-1.326,3.1c-.027.4-.7,9.882-2.511,10.486a.6.6,0,0,1-.19.031c-.875,0-1.729-1.987-2.529-4.022l-.186-.475v-.008c-.711-1.819-1.382-3.538-1.971-3.538H9.451c-.579.023-1.249,1.689-1.958,3.453C6.628,17.945,5.648,20.384,4.621,20.384Zm4.85-9.266c.839,0,1.619,2,2.373,3.935l.037.1c.769,1.975,1.5,3.841,2.265,3.841a.52.52,0,0,0,.07-.005c1.579-.246,1.418-9,1.416-9.094a10.447,10.447,0,0,0,1.491-2.8,4.714,4.714,0,0,0-1-5.172,3.027,3.027,0,0,0-2.1-.944c-2.474,0-4.566,3.563-4.587,3.6C9.414,4.54,7.267,1.042,4.713,1.042a3.248,3.248,0,0,0-2.142.878,4.55,4.55,0,0,0-1.13,5.111A10.63,10.63,0,0,0,2.913,9.889c0,.092.166,9.094,1.8,9.094h.02c.84-.035,1.6-2.007,2.343-3.915s1.507-3.889,2.355-3.949Z" transform="translate(163.79 354.806)" fill="#ff770e"/>
    <g id="Rectangle_1935" data-name="Rectangle 1935" transform="translate(161 353)" fill="none" stroke="#707070" stroke-width="1" opacity="0">
      <rect width="24" height="24" stroke="none"/>
      <rect x="0.5" y="0.5" width="23" height="23" fill="none"/>
    </g>
  </g>
</svg>
