<svg xmlns="http://www.w3.org/2000/svg" width="24" height="24" viewBox="0 0 24 24">
  <defs>
    <style>
      .cls-1 {
        fill: #c7beb7;
      }

      .cls-2, .cls-4 {
        fill: none;
      }

      .cls-2 {
        stroke: #707070;
        opacity: 0;
      }

      .cls-3 {
        stroke: none;
      }
    </style>
  </defs>
  <g id="Object_2" data-name="Object 2" transform="translate(-161 -453)">
    <path id="Union_30" data-name="Union 30" class="cls-1" d="M7.07,19.121a2.081,2.081,0,0,1-.5-1.2c0-.43.147-.509.15-.509a.019.019,0,0,1,.009,0c.144.008.678.046,1.527.046H9.907s.087.029.072.5A2.262,2.262,0,0,1,9.3,19.231a1.932,1.932,0,0,1-1.187.43A1.632,1.632,0,0,1,7.07,19.121ZM7.29,18.1a.14.14,0,0,0-.035.112,1.153,1.153,0,0,0,.208.479.008.008,0,0,1,0,.006,1.133,1.133,0,0,0,.8.306,1.057,1.057,0,0,0,.817-.373,1.339,1.339,0,0,0,.234-.509.1.1,0,0,0-.02-.077c-.029-.029-.09-.043-.2-.043-.067,0-.15.006-.246.012H8.841c-.153.008-.341.018-.575.018-.106,0-.205,0-.295,0h-.2C7.492,18.026,7.35,18.038,7.29,18.1Zm-.413-1.061c-.165,0-.4-.09-.595-.488a2.284,2.284,0,0,1-.307-1.105.821.821,0,0,1,.307-.65,9.749,9.749,0,0,0,1.975.234,9.4,9.4,0,0,0,1.946-.234.7.7,0,0,1,.338.65,1.837,1.837,0,0,1-.335,1.105c-.265.425-.531.485-.667.485a6.6,6.6,0,0,1-1.427.19A4.285,4.285,0,0,1,6.877,17.039Zm-.333-1.562a.414.414,0,0,0-.06.3A.765.765,0,0,0,6.7,16.3a.72.72,0,0,0,.531.164h.023a3.51,3.51,0,0,0,.855.084,8.612,8.612,0,0,0,1.126-.084.85.85,0,0,0,.526-.276.662.662,0,0,0,.242-.5.251.251,0,0,0-.052-.2.2.2,0,0,0-.147-.055,8.875,8.875,0,0,1-1.583.165,9.323,9.323,0,0,1-1.574-.161l-.006,0A.139.139,0,0,0,6.544,15.477Zm-.43-.869-.006,0a1.064,1.064,0,0,1-.87-.485,1.749,1.749,0,0,1-.457-1.105.8.8,0,0,1,.457-.65,21.667,21.667,0,0,0,2.922.234,20.537,20.537,0,0,0,2.886-.234s.52.179.5.65a1.461,1.461,0,0,1-.5,1.105,1.364,1.364,0,0,1-.988.485,13.99,13.99,0,0,1-2.114.19A9.427,9.427,0,0,1,6.115,14.607Zm-.584-1.491a.3.3,0,0,0-.052.249.606.606,0,0,0,.321.48A1.55,1.55,0,0,0,6.594,14h.038a9.1,9.1,0,0,0,1.262.075c.638,0,1.308-.047,1.655-.075h.023a1.624,1.624,0,0,0,.78-.26c.286-.18.34-.286.358-.46a.192.192,0,0,0-.043-.155.341.341,0,0,0-.251-.075h-.009a21.612,21.612,0,0,1-2.345.15,21.116,21.116,0,0,1-2.34-.15H5.713A.23.23,0,0,0,5.531,13.116ZM15.975,11.89a2.98,2.98,0,1,1,.5-.624l2.55,2.379-.543.582ZM11.726,9.732a2.189,2.189,0,1,0,2.189-2.189A2.191,2.191,0,0,0,11.726,9.732ZM4.153,12.006a2.7,2.7,0,0,1-1.6-.489A1.555,1.555,0,0,1,2,10.41a.8.8,0,0,1,.8-.794H2.8a46.945,46.945,0,0,0,5.554.376c.788,0,1.654-.029,2.576-.09a3.046,3.046,0,0,0,.1.6c-.973.037-1.868.054-2.657.054-2.076,0-4.141-.118-4.725-.152l-.02,0H3.46c-.28,0-.468.023-.509.324,0,0,.012.289.471.451a4.383,4.383,0,0,0,1.369.2h.038c.511.023,1.843.074,3.2.074,1.3,0,2.651-.045,3.345-.074h.045A3.026,3.026,0,0,0,11.98,12l-.046,0c-.018,0-2.074.188-3.977.188C6.04,12.193,4.171,12.006,4.153,12.006ZM1.522,9.117H1.514A10.866,10.866,0,0,1,.234,6.194a4.86,4.86,0,0,1,1.28-5.144A3.732,3.732,0,0,1,3.992.068c2.519,0,4.719,2.66,4.74,2.687l0-.006C8.951,2.469,10.915,0,13.176,0A3.432,3.432,0,0,1,15.57,1.051a5.16,5.16,0,0,1,1.227,5.2,10.07,10.07,0,0,1-.56,1.6,2.965,2.965,0,0,0-.843-.72A7.674,7.674,0,0,0,15.836,6a3.778,3.778,0,0,0-1-4.165,2.813,2.813,0,0,0-1.857-.728c-2.186,0-4.2,2.634-4.286,2.743-.023-.025-2.1-2.691-4.4-2.691A3.049,3.049,0,0,0,2.4,1.836,3.545,3.545,0,0,0,1.285,5.871,8.27,8.27,0,0,0,2.4,8.178a54.126,54.126,0,0,0,6.29.437c.766,0,1.6-.018,2.476-.052a2.887,2.887,0,0,0-.231.973c-.777.037-1.519.059-2.206.059A65.888,65.888,0,0,1,1.522,9.117Z" transform="translate(164.304 455.109)"/>
    <g id="Rectangle_1935" data-name="Rectangle 1935" class="cls-2" transform="translate(161 453)">
      <rect class="cls-3" width="24" height="24"/>
      <rect class="cls-4" x="0.5" y="0.5" width="23" height="23"/>
    </g>
  </g>
</svg>
