<svg xmlns="http://www.w3.org/2000/svg" width="24" height="24" viewBox="0 0 24 24">
  <defs>
    <style>
      .cls-1 {
        fill: #c7beb7;
      }

      .cls-2, .cls-4 {
        fill: none;
      }

      .cls-2 {
        stroke: #707070;
        opacity: 0;
      }

      .cls-3 {
        stroke: none;
      }
    </style>
  </defs>
  <g id="Viewer_property_1" data-name="Viewer property 1" transform="translate(-161 -557)">
    <g id="Viewer_property_1-2" data-name="Viewer property 1" transform="translate(163.509 559.509)">
      <path id="Path_1121" data-name="Path 1121" class="cls-1" d="M12.511,7a5.511,5.511,0,1,0,5.511,5.511A5.517,5.517,0,0,0,12.511,7Zm0,10.09A4.555,4.555,0,0,1,7.9,12.511a4.438,4.438,0,0,1,4.61-4.5,4.375,4.375,0,0,1,4.562,4.5A4.487,4.487,0,0,1,12.511,17.09Z" transform="translate(-3.02 -3.02)"/>
      <path id="Path_1122" data-name="Path 1122" class="cls-1" d="M15.418,3.647a.919.919,0,0,0,.918-.918V1.418a.918.918,0,0,0-1.837,0v1.31A.919.919,0,0,0,15.418,3.647Z" transform="translate(-5.927 -0.5)"/>
      <path id="Path_1123" data-name="Path 1123" class="cls-1" d="M5.8,7.094a.918.918,0,1,0,1.3-1.3L6.168,4.87a.918.918,0,1,0-1.3,1.3Z" transform="translate(-2.09 -2.09)"/>
      <path id="Path_1124" data-name="Path 1124" class="cls-1" d="M3.646,15.418a.919.919,0,0,0-.918-.918H1.418a.918.918,0,0,0,0,1.837H2.728A.919.919,0,0,0,3.646,15.418Z" transform="translate(-0.5 -5.927)"/>
      <path id="Path_1125" data-name="Path 1125" class="cls-1" d="M5.8,23.157l-.926.926a.918.918,0,1,0,1.3,1.3l.926-.926a.918.918,0,1,0-1.3-1.3Z" transform="translate(-2.09 -9.179)"/>
      <path id="Path_1126" data-name="Path 1126" class="cls-1" d="M15.418,26.361a.919.919,0,0,0-.918.918v1.31a.918.918,0,0,0,1.837,0V27.28A.919.919,0,0,0,15.418,26.361Z" transform="translate(-5.927 -10.526)"/>
      <path id="Path_1127" data-name="Path 1127" class="cls-1" d="M24.456,23.157a.918.918,0,1,0-1.3,1.3l.926.926a.918.918,0,1,0,1.3-1.3Z" transform="translate(-9.179 -9.179)"/>
      <path id="Path_1128" data-name="Path 1128" class="cls-1" d="M28.589,14.5H27.28a.918.918,0,1,0,0,1.837h1.31a.918.918,0,0,0,0-1.837Z" transform="translate(-10.526 -5.927)"/>
      <path id="Path_1129" data-name="Path 1129" class="cls-1" d="M23.806,7.363a.916.916,0,0,0,.649-.269l.926-.926a.918.918,0,1,0-1.3-1.3l-.926.926a.918.918,0,0,0,.649,1.568Z" transform="translate(-9.179 -2.09)"/>
    </g>
    <g id="Rectangle_1935" data-name="Rectangle 1935" class="cls-2" transform="translate(161 557)">
      <rect class="cls-3" width="24" height="24"/>
      <rect class="cls-4" x="0.5" y="0.5" width="23" height="23"/>
    </g>
  </g>
</svg>
