<svg xmlns="http://www.w3.org/2000/svg" width="24" height="24" viewBox="0 0 24 24">
  <g id="Viewer_property_2" data-name="Viewer property 2" transform="translate(-161 -583)">
    <g id="Viewer_property_2-2" data-name="Viewer property 2" transform="translate(161.275 583)">
      <path id="Path_1130" data-name="Path 1130" d="M0,0H23.448V23.448H0Z" fill="none"/>
      <path id="Path_1131" data-name="Path 1131" d="M11.77,21.54a9.77,9.77,0,1,1,9.77-9.77,9.77,9.77,0,0,1-9.77,9.77Zm0-1.117a8.787,8.787,0,0,0,8.655-8.653A9.038,9.038,0,0,0,11.77,3.11C7.1,3.015,3.031,7.429,3.07,11.77a9.121,9.121,0,0,0,8.7,8.653Zm0-2.791V5.908a5.862,5.862,0,0,1,0,11.724Z" transform="translate(-0.046 -0.046)" fill="#ff770e"/>
    </g>
    <g id="Rectangle_1935" data-name="Rectangle 1935" transform="translate(161 583)" fill="none" stroke="#707070" stroke-width="1" opacity="0">
      <rect width="24" height="24" stroke="none"/>
      <rect x="0.5" y="0.5" width="23" height="23" fill="none"/>
    </g>
  </g>
</svg>
