<svg xmlns="http://www.w3.org/2000/svg" width="20" height="20" viewBox="0 0 20 20">
  <g id="Viewer_property_1" data-name="Viewer property 1" transform="translate(-161 -557)">
    <g id="Viewer_property_1-2" data-name="Viewer property 1" transform="translate(162.591 558.591)">
      <path id="Path_1121" data-name="Path 1121" d="M11.592,7a4.592,4.592,0,1,0,4.592,4.592A4.6,4.6,0,0,0,11.592,7Zm0,8.654a3.9,3.9,0,0,1-4.062-4.062,3.945,3.945,0,0,1,4.062-4.062,3.886,3.886,0,0,1,4.062,4.062A3.96,3.96,0,0,1,11.592,15.654Z" transform="translate(-3.183 -3.183)" fill="#c7beb7"/>
      <path id="Path_1122" data-name="Path 1122" d="M15.265,3.122a.765.765,0,0,0,.765-.765V1.265a.765.765,0,0,0-1.531,0V2.357A.765.765,0,0,0,15.265,3.122Z" transform="translate(-6.856)" fill="#c7beb7"/>
      <path id="Path_1123" data-name="Path 1123" d="M5.6,6.679A.765.765,0,1,0,6.679,5.6l-.772-.771A.765.765,0,1,0,4.825,5.907Z" transform="translate(-2.008 -2.008)" fill="#c7beb7"/>
      <path id="Path_1124" data-name="Path 1124" d="M3.122,15.265a.765.765,0,0,0-.765-.765H1.265a.765.765,0,0,0,0,1.531H2.356A.765.765,0,0,0,3.122,15.265Z" transform="translate(0 -6.856)" fill="#c7beb7"/>
      <path id="Path_1125" data-name="Path 1125" d="M5.6,23.112l-.772.771a.765.765,0,1,0,1.082,1.082l.772-.771A.765.765,0,1,0,5.6,23.112Z" transform="translate(-2.008 -10.964)" fill="#c7beb7"/>
      <path id="Path_1126" data-name="Path 1126" d="M15.265,26.361a.765.765,0,0,0-.765.765v1.091a.765.765,0,0,0,1.531,0V27.127A.765.765,0,0,0,15.265,26.361Z" transform="translate(-6.856 -12.665)" fill="#c7beb7"/>
      <path id="Path_1127" data-name="Path 1127" d="M24.194,23.112a.765.765,0,0,0-1.082,1.082l.771.771a.765.765,0,0,0,1.082-1.082Z" transform="translate(-10.964 -10.964)" fill="#c7beb7"/>
      <path id="Path_1128" data-name="Path 1128" d="M28.218,14.5H27.127a.765.765,0,1,0,0,1.531h1.091a.765.765,0,0,0,0-1.531Z" transform="translate(-12.665 -6.856)" fill="#c7beb7"/>
      <path id="Path_1129" data-name="Path 1129" d="M23.653,6.9a.763.763,0,0,0,.541-.224l.771-.771a.765.765,0,1,0-1.082-1.082l-.771.771A.765.765,0,0,0,23.653,6.9Z" transform="translate(-10.964 -2.008)" fill="#c7beb7"/>
    </g>
    <g id="Rectangle_1935" data-name="Rectangle 1935" transform="translate(161 557)" fill="none" stroke="#707070" stroke-width="1" opacity="0">
      <rect width="20" height="20" stroke="none"/>
      <rect x="0.5" y="0.5" width="19" height="19" fill="none"/>
    </g>
  </g>
</svg>
