<svg xmlns="http://www.w3.org/2000/svg" width="24" height="24" viewBox="0 0 24 24">
  <g id="Viewer_property_1" data-name="Viewer property 1" transform="translate(-161 -557)">
    <g id="Viewer_property_1-2" data-name="Viewer property 1" transform="translate(163.509 559.509)">
      <path id="Path_1121" data-name="Path 1121" d="M12.511,7a5.511,5.511,0,1,0,5.511,5.511A5.511,5.511,0,0,0,12.511,7Zm0,10.09A4.555,4.555,0,0,1,7.9,12.511a4.438,4.438,0,0,1,4.61-4.5,4.375,4.375,0,0,1,4.562,4.5,4.487,4.487,0,0,1-4.561,4.579Z" transform="translate(-3.02 -3.02)" fill="#ff770e"/>
      <path id="Path_1122" data-name="Path 1122" d="M15.418,3.647a.919.919,0,0,0,.918-.918V1.418a.918.918,0,1,0-1.837,0v1.31a.919.919,0,0,0,.919.919Z" transform="translate(-5.927 -0.5)" fill="#ff770e"/>
      <path id="Path_1123" data-name="Path 1123" d="M5.8,7.094a.919.919,0,0,0,1.3-1.3L6.168,4.87a.919.919,0,0,0-1.3,1.3Z" transform="translate(-2.09 -2.09)" fill="#ff770e"/>
      <path id="Path_1124" data-name="Path 1124" d="M3.646,15.418a.919.919,0,0,0-.918-.918H1.418a.919.919,0,0,0,0,1.837h1.31a.919.919,0,0,0,.918-.919Z" transform="translate(-0.5 -5.927)" fill="#ff770e"/>
      <path id="Path_1125" data-name="Path 1125" d="M5.8,23.157l-.926.926a.919.919,0,0,0,1.3,1.3l.926-.926a.919.919,0,0,0-1.3-1.3Z" transform="translate(-2.09 -9.179)" fill="#ff770e"/>
      <path id="Path_1126" data-name="Path 1126" d="M15.418,26.361a.919.919,0,0,0-.918.918v1.31a.919.919,0,0,0,1.837,0V27.28a.919.919,0,0,0-.919-.919Z" transform="translate(-5.927 -10.526)" fill="#ff770e"/>
      <path id="Path_1127" data-name="Path 1127" d="M24.456,23.157a.919.919,0,1,0-1.3,1.3l.926.926a.919.919,0,0,0,1.3-1.3Z" transform="translate(-9.179 -9.179)" fill="#ff770e"/>
      <path id="Path_1128" data-name="Path 1128" d="M28.589,14.5H27.28a.919.919,0,0,0,0,1.837h1.31a.918.918,0,1,0,0-1.837Z" transform="translate(-10.526 -5.927)" fill="#ff770e"/>
      <path id="Path_1129" data-name="Path 1129" d="M23.806,7.363a.916.916,0,0,0,.649-.269l.926-.926a.919.919,0,0,0-1.3-1.3l-.926.926A.918.918,0,0,0,23.8,7.362Z" transform="translate(-9.179 -2.09)" fill="#ff770e"/>
    </g>
    <g id="Rectangle_1935" data-name="Rectangle 1935" transform="translate(161 557)" fill="none" stroke="#707070" stroke-width="1" opacity="0">
      <rect width="24" height="24" stroke="none"/>
      <rect x="0.5" y="0.5" width="23" height="23" fill="none"/>
    </g>
  </g>
</svg>
