<svg xmlns="http://www.w3.org/2000/svg" width="20" height="20" viewBox="0 0 20 20">
  <g id="Viewer_property_3" data-name="Viewer property 3" transform="translate(-161 -531)">
    <path id="Path_1119" data-name="Path 1119" d="M16.36,4.85A2.8,2.8,0,0,0,14,6.12a.32.32,0,0,0-.1.1l-.11.18h0a5.58,5.58,0,0,0-.39.92c-.27.92-.6,2.67-.89,4.29-.29-1.62-.62-3.37-.89-4.29a5.58,5.58,0,0,0-.39-.92h0l-.11-.18a.94.94,0,0,0-.1-.1A2.8,2.8,0,0,0,8.64,4.85,3.22,3.22,0,0,0,5.49,8.12a3.22,3.22,0,0,0,3.15,3.27,1,1,0,0,0,0-2A1.22,1.22,0,0,1,7.49,8.12,1.22,1.22,0,0,1,8.64,6.85a.85.85,0,0,1,.83.52c.07.14.19.42.22.51.53,1.82,1.43,7.64,1.45,7.75a3,3,0,0,1,0,.42l.31,3.19a1,1,0,0,0,.88.89h.26a1,1,0,0,0,.88-.89L13.83,16a1.87,1.87,0,0,1,0-.37c0-.06.91-5.88,1.44-7.7a2.3,2.3,0,0,1,.22-.51h0a.85.85,0,0,1,.83-.52c.666.038,1.815-1.99.04-2.05Z" transform="translate(158.354 528.51)" fill="#c7beb7"/>
    <g id="Rectangle_1935" data-name="Rectangle 1935" transform="translate(161 531)" fill="none" stroke="#707070" stroke-width="1" opacity="0">
      <rect width="20" height="20" stroke="none"/>
      <rect x="0.5" y="0.5" width="19" height="19" fill="none"/>
    </g>
  </g>
</svg>
