<svg xmlns="http://www.w3.org/2000/svg" width="24" height="24" viewBox="0 0 24 24">
  <defs>
    <style>
      .cls-1 {
        fill: #c7beb7;
      }

      .cls-2, .cls-4 {
        fill: none;
      }

      .cls-2 {
        stroke: #707070;
        opacity: 0;
      }

      .cls-3 {
        stroke: none;
      }
    </style>
  </defs>
  <g id="Viewer_property_3" data-name="Viewer property 3" transform="translate(-161 -531)">
    <path id="Path_1119" data-name="Path 1119" class="cls-1" d="M18.534,4.85A3.36,3.36,0,0,0,15.7,6.374a.384.384,0,0,0-.12.12l-.132.216h0a6.7,6.7,0,0,0-.468,1.1c-.324,1.1-.72,3.2-1.068,5.148-.348-1.944-.744-4.044-1.068-5.148a6.7,6.7,0,0,0-.468-1.1h0l-.132-.216a1.128,1.128,0,0,0-.12-.12A3.36,3.36,0,0,0,9.27,4.85,3.864,3.864,0,0,0,5.49,8.774,3.864,3.864,0,0,0,9.27,12.7a1.2,1.2,0,0,0,0-2.4A1.464,1.464,0,0,1,7.89,8.774,1.464,1.464,0,0,1,9.27,7.25a1.02,1.02,0,0,1,1,.624c.084.168.228.5.264.612.636,2.184,1.716,9.168,1.74,9.3a3.6,3.6,0,0,1,0,.5l.372,3.828A1.2,1.2,0,0,0,13.7,23.186h.312a1.2,1.2,0,0,0,1.056-1.068L15.5,18.23a2.244,2.244,0,0,1,0-.444c0-.072,1.092-7.056,1.728-9.24a2.758,2.758,0,0,1,.264-.612h0a1.02,1.02,0,0,1,1-.624c.8.045,2.178-2.388.048-2.46Z" transform="translate(158.922 528.982)"/>
    <g id="Rectangle_1935" data-name="Rectangle 1935" class="cls-2" transform="translate(161 531)">
      <rect class="cls-3" width="24" height="24"/>
      <rect class="cls-4" x="0.5" y="0.5" width="23" height="23"/>
    </g>
  </g>
</svg>
